<svg width="65" height="30" viewBox="0 0 65 30" fill="none" xmlns="http://www.w3.org/2000/svg">
<path d="M10.2294 0.670842V3.02945H3.16457V7.44909H8.73046V9.73056H3.16457V14.2384H10.2294V16.608H0.177734V0.670842H10.2294Z" fill="url(#paint0_linear_912_5957)"/>
<path d="M16.6388 0.22998V16.608H13.9164V0.22998H16.6388Z" fill="url(#paint1_linear_912_5957)"/>
<path d="M23.7253 0.22998V16.608H21.0029V0.22998H23.7253Z" fill="url(#paint2_linear_912_5957)"/>
<path d="M32.7406 5.12355C33.5855 5.12355 34.3497 5.25948 35.033 5.53135C35.7237 5.80321 36.3115 6.18896 36.7965 6.68861C37.2814 7.18825 37.6562 7.79811 37.9207 8.51818C38.1852 9.23826 38.3175 10.0428 38.3175 10.9319C38.3175 11.8283 38.1852 12.6366 37.9207 13.3566C37.6562 14.0767 37.2814 14.6903 36.7965 15.1972C36.3115 15.7042 35.7237 16.0937 35.033 16.3655C34.3497 16.6374 33.5855 16.7733 32.7406 16.7733C31.8956 16.7733 31.1277 16.6374 30.437 16.3655C29.7464 16.0937 29.1549 15.7042 28.6626 15.1972C28.1776 14.6903 27.7992 14.0767 27.5274 13.3566C27.2628 12.6366 27.1306 11.8283 27.1306 10.9319C27.1306 10.0428 27.2628 9.23826 27.5274 8.51818C27.7992 7.79811 28.1776 7.18825 28.6626 6.68861C29.1549 6.18896 29.7464 5.80321 30.437 5.53135C31.1277 5.25948 31.8956 5.12355 32.7406 5.12355ZM32.7406 14.6792C33.6811 14.6792 34.3754 14.3633 34.8236 13.7314C35.2792 13.0995 35.507 12.1737 35.507 10.9539C35.507 9.73423 35.2792 8.80474 34.8236 8.16549C34.3754 7.52625 33.6811 7.20662 32.7406 7.20662C31.7854 7.20662 31.08 7.52992 30.6244 8.17652C30.1689 8.81577 29.9411 9.74158 29.9411 10.9539C29.9411 12.1663 30.1689 13.0921 30.6244 13.7314C31.08 14.3633 31.7854 14.6792 32.7406 14.6792Z" fill="url(#paint3_linear_912_5957)"/>
<path d="M45.4563 5.1015C45.9413 5.1015 46.3968 5.15294 46.823 5.25581C47.2492 5.35133 47.6386 5.49461 47.9913 5.68565H51.2426V6.69963C51.2426 6.86863 51.1985 7.00089 51.1104 7.09641C51.0222 7.19193 50.8716 7.25805 50.6585 7.29479L49.6445 7.48216C49.718 7.6732 49.7731 7.87526 49.8098 8.08834C49.8539 8.30143 49.876 8.52553 49.876 8.76066C49.876 9.31908 49.7621 9.82607 49.5343 10.2816C49.3139 10.7298 49.0053 11.1119 48.6085 11.4279C48.2191 11.7438 47.7525 11.99 47.2087 12.1663C46.6724 12.3353 46.0882 12.4198 45.4563 12.4198C45.0302 12.4198 44.615 12.3794 44.2109 12.2986C43.8582 12.5117 43.6818 12.7505 43.6818 13.015C43.6818 13.2428 43.7847 13.4118 43.9904 13.522C44.2035 13.6248 44.4791 13.6983 44.8171 13.7424C45.1624 13.7865 45.5518 13.8159 45.9854 13.8306C46.4189 13.8379 46.8634 13.86 47.319 13.8967C47.7745 13.9334 48.2191 13.9996 48.6526 14.0951C49.0861 14.1833 49.4718 14.3265 49.8098 14.5249C50.1552 14.7233 50.4307 14.9952 50.6364 15.3405C50.8495 15.6785 50.9561 16.1157 50.9561 16.6521C50.9561 17.1517 50.8312 17.6367 50.5813 18.1069C50.3389 18.5772 49.9825 18.996 49.5122 19.3634C49.0493 19.7308 48.4799 20.0247 47.8039 20.2451C47.1279 20.4729 46.3564 20.5868 45.4894 20.5868C44.6297 20.5868 43.8839 20.5023 43.252 20.3333C42.6201 20.1716 42.0947 19.9512 41.6759 19.672C41.2645 19.4001 40.9559 19.0842 40.7501 18.7241C40.5444 18.3641 40.4415 17.9894 40.4415 17.5999C40.4415 17.0709 40.6032 16.6264 40.9265 16.2663C41.2498 15.9063 41.698 15.6197 42.2711 15.4067C41.9919 15.2523 41.7678 15.0466 41.5988 14.7894C41.4298 14.5323 41.3453 14.198 41.3453 13.7865C41.3453 13.6175 41.3747 13.4448 41.4334 13.2685C41.4922 13.0848 41.5804 12.9048 41.698 12.7284C41.8229 12.5521 41.9772 12.3867 42.1609 12.2324C42.3446 12.0708 42.5613 11.9275 42.8111 11.8026C42.238 11.494 41.7861 11.0825 41.4555 10.5682C41.1322 10.0539 40.9705 9.45134 40.9705 8.76066C40.9705 8.20223 41.0808 7.69892 41.3012 7.25071C41.529 6.79515 41.8413 6.40939 42.238 6.09344C42.6422 5.77015 43.1161 5.524 43.6598 5.355C44.2109 5.186 44.8097 5.1015 45.4563 5.1015ZM48.4432 17.115C48.4432 16.8946 48.377 16.7145 48.2448 16.5749C48.1125 16.4353 47.9325 16.3288 47.7047 16.2553C47.4769 16.1745 47.2087 16.1157 46.9001 16.079C46.5989 16.0422 46.2756 16.0165 45.9302 16.0018C45.5923 15.9798 45.2396 15.9614 44.8722 15.9467C44.5121 15.9247 44.1631 15.8916 43.8251 15.8475C43.5165 16.0165 43.2667 16.2186 43.0757 16.4537C42.892 16.6815 42.8001 16.946 42.8001 17.2472C42.8001 17.4456 42.8479 17.6293 42.9434 17.7983C43.0463 17.9747 43.2043 18.1253 43.4173 18.2502C43.6378 18.3751 43.9207 18.4706 44.266 18.5368C44.6113 18.6102 45.0338 18.647 45.5335 18.647C46.0405 18.647 46.4776 18.6066 46.845 18.5257C47.2124 18.4523 47.5137 18.3457 47.7488 18.2061C47.9913 18.0739 48.1676 17.9122 48.2778 17.7212C48.3881 17.5375 48.4432 17.3354 48.4432 17.115ZM45.4563 10.6784C45.7943 10.6784 46.0882 10.6343 46.338 10.5461C46.5879 10.4506 46.7936 10.322 46.9552 10.1604C47.1242 9.99874 47.2492 9.80403 47.33 9.57625C47.4182 9.34847 47.4622 9.09865 47.4622 8.82679C47.4622 8.26836 47.2932 7.8275 46.9552 7.5042C46.6246 7.17356 46.125 7.00823 45.4563 7.00823C44.7877 7.00823 44.2844 7.17356 43.9464 7.5042C43.6157 7.8275 43.4504 8.26836 43.4504 8.82679C43.4504 9.0913 43.4908 9.33745 43.5716 9.56523C43.6598 9.79301 43.7847 9.9914 43.9464 10.1604C44.1154 10.322 44.3248 10.4506 44.5746 10.5461C44.8318 10.6343 45.1257 10.6784 45.4563 10.6784Z" fill="url(#paint4_linear_912_5957)"/>
<path d="M58.0667 19.7161C57.9859 19.9071 57.8793 20.0504 57.7471 20.1459C57.6222 20.2488 57.4274 20.3002 57.1629 20.3002H55.135L57.2511 15.7704L52.6772 5.29989H55.0578C55.2782 5.29989 55.4472 5.35133 55.5648 5.45419C55.6824 5.55706 55.7705 5.67463 55.8293 5.80688L58.243 11.6703C58.3239 11.8614 58.3937 12.0598 58.4524 12.2655C58.5112 12.4712 58.5627 12.677 58.6067 12.8827C58.6655 12.6696 58.728 12.4639 58.7941 12.2655C58.8676 12.0671 58.9447 11.8651 59.0256 11.6593L61.296 5.80688C61.3548 5.65993 61.4503 5.53869 61.5826 5.44317C61.7222 5.34765 61.8765 5.29989 62.0455 5.29989H64.2277L58.0667 19.7161Z" fill="url(#paint5_linear_912_5957)"/>
<path d="M2.97887 24.6048C2.9587 24.6401 2.93742 24.6671 2.91501 24.686C2.8926 24.7024 2.86347 24.7107 2.82762 24.7107C2.78953 24.7107 2.74472 24.6907 2.69319 24.6507C2.64389 24.6107 2.58004 24.5671 2.50161 24.52C2.42543 24.4706 2.33245 24.4259 2.22266 24.3859C2.11511 24.3459 1.98403 24.3259 1.82943 24.3259C1.68379 24.3259 1.55495 24.347 1.44292 24.3894C1.33089 24.4294 1.23678 24.4847 1.1606 24.5553C1.08666 24.6259 1.03064 24.7095 0.992553 24.806C0.954462 24.9001 0.935417 25.0025 0.935417 25.1131C0.935417 25.2544 0.967906 25.372 1.03288 25.4662C1.1001 25.558 1.18749 25.6368 1.29504 25.7027C1.40483 25.7686 1.52806 25.8263 1.66474 25.8757C1.80366 25.9228 1.94482 25.9722 2.08822 26.024C2.23386 26.0758 2.37502 26.1346 2.5117 26.2005C2.65061 26.2641 2.77385 26.3453 2.8814 26.4441C2.99119 26.543 3.07857 26.6642 3.14355 26.8077C3.21077 26.9513 3.24438 27.1278 3.24438 27.3373C3.24438 27.5585 3.20853 27.7668 3.13683 27.9622C3.06513 28.1552 2.95982 28.3234 2.8209 28.467C2.68422 28.6106 2.51506 28.7236 2.3134 28.8059C2.11399 28.8883 1.88656 28.9295 1.63113 28.9295C1.31968 28.9295 1.03512 28.8707 0.777453 28.753C0.522022 28.6329 0.303561 28.4717 0.12207 28.2693L0.310283 27.9445C0.328208 27.9186 0.349494 27.8974 0.374141 27.881C0.401028 27.8621 0.430156 27.8527 0.461525 27.8527C0.508578 27.8527 0.562353 27.8798 0.62285 27.9339C0.683347 27.9857 0.758408 28.0434 0.848033 28.1069C0.939898 28.1705 1.04969 28.2293 1.1774 28.2834C1.30736 28.3352 1.46532 28.3611 1.6513 28.3611C1.8059 28.3611 1.9437 28.3387 2.06469 28.294C2.18569 28.2493 2.28763 28.1869 2.37054 28.1069C2.45568 28.0245 2.52066 27.9269 2.56547 27.8139C2.61028 27.7009 2.63269 27.575 2.63269 27.4361C2.63269 27.2832 2.59908 27.1584 2.53186 27.0619C2.46688 26.9631 2.38062 26.8807 2.27307 26.8148C2.16552 26.7489 2.04229 26.6936 1.90337 26.6489C1.76669 26.6018 1.62553 26.5547 1.47989 26.5076C1.33649 26.4582 1.19533 26.4017 1.05641 26.3382C0.919733 26.2746 0.797619 26.1923 0.690069 26.0911C0.582519 25.9899 0.495134 25.8639 0.427916 25.7133C0.362937 25.5603 0.330448 25.372 0.330448 25.1484C0.330448 24.9696 0.362937 24.7966 0.427916 24.6295C0.495134 24.4624 0.591481 24.3141 0.716956 24.1846C0.842431 24.0552 0.997034 23.9516 1.18077 23.874C1.36674 23.7963 1.5796 23.7575 1.81934 23.7575C2.08822 23.7575 2.33357 23.8022 2.55539 23.8916C2.77721 23.9811 2.97102 24.1105 3.13683 24.28L2.97887 24.6048Z" fill="#102142"/>
<path d="M5.38931 25.2402C5.59321 25.2402 5.78142 25.2767 5.95395 25.3497C6.12648 25.4203 6.27548 25.5238 6.40095 25.6604C6.52643 25.7945 6.62389 25.9616 6.69335 26.1617C6.76505 26.3594 6.8009 26.5853 6.8009 26.8395C6.8009 26.9384 6.79082 27.0043 6.77065 27.0372C6.75049 27.0702 6.7124 27.0866 6.65638 27.0866H4.39111C4.39559 27.3126 4.42472 27.5091 4.4785 27.6762C4.53227 27.8433 4.60621 27.9834 4.70032 28.0963C4.79442 28.2069 4.90646 28.2905 5.03641 28.347C5.16637 28.4011 5.31201 28.4282 5.47333 28.4282C5.62346 28.4282 5.75229 28.4105 5.85984 28.3752C5.96963 28.3376 6.06374 28.2976 6.14216 28.2552C6.22058 28.2128 6.28556 28.174 6.33709 28.1387C6.39087 28.101 6.4368 28.0822 6.47489 28.0822C6.52419 28.0822 6.56228 28.1022 6.58916 28.1422L6.75721 28.3717C6.68327 28.4658 6.59477 28.5482 6.4917 28.6188C6.38863 28.6871 6.27772 28.7436 6.15896 28.7883C6.04245 28.833 5.92146 28.866 5.79598 28.8871C5.67051 28.9107 5.54615 28.9224 5.42292 28.9224C5.18765 28.9224 4.97031 28.8812 4.7709 28.7989C4.57372 28.7141 4.40231 28.5918 4.25667 28.4317C4.11327 28.2693 4.00124 28.0693 3.92058 27.8315C3.83992 27.5938 3.79959 27.3208 3.79959 27.0125C3.79959 26.763 3.83544 26.53 3.90714 26.3135C3.98108 26.0969 4.08639 25.9098 4.22306 25.7521C4.35974 25.5921 4.52667 25.4674 4.72384 25.3779C4.92102 25.2861 5.14284 25.2402 5.38931 25.2402ZM5.40275 25.7027C5.11371 25.7027 4.88629 25.791 4.72048 25.9675C4.55468 26.1417 4.45161 26.3841 4.41128 26.6948H6.26315C6.26315 26.5488 6.24411 26.4159 6.20602 26.2958C6.16793 26.1734 6.11191 26.0687 6.03797 25.9816C5.96403 25.8922 5.87328 25.8239 5.76573 25.7769C5.66043 25.7274 5.53943 25.7027 5.40275 25.7027Z" fill="#102142"/>
<path d="M7.62593 28.873V25.2967H7.98219C8.06733 25.2967 8.12111 25.3403 8.14351 25.4273L8.18721 25.7945C8.31268 25.6321 8.45272 25.4991 8.60732 25.3956C8.76417 25.292 8.94566 25.2402 9.15179 25.2402C9.38258 25.2402 9.56855 25.3073 9.70971 25.4415C9.85311 25.5756 9.95618 25.7569 10.0189 25.9852C10.066 25.8557 10.1276 25.7439 10.2038 25.6498C10.2822 25.5556 10.3696 25.478 10.4659 25.4168C10.5623 25.3556 10.6642 25.3108 10.7718 25.2826C10.8816 25.2544 10.9925 25.2402 11.1045 25.2402C11.2837 25.2402 11.4428 25.2708 11.5818 25.332C11.7229 25.3909 11.8417 25.478 11.938 25.5933C12.0366 25.7086 12.1117 25.851 12.1632 26.0205C12.2147 26.1876 12.2405 26.3794 12.2405 26.5959V28.873H11.6422V26.5959C11.6422 26.3158 11.584 26.104 11.4675 25.9604C11.351 25.8145 11.1818 25.7416 10.96 25.7416C10.8614 25.7416 10.7673 25.7604 10.6777 25.798C10.5903 25.8333 10.513 25.8863 10.4458 25.9569C10.3785 26.0275 10.3248 26.117 10.2844 26.2252C10.2463 26.3311 10.2273 26.4547 10.2273 26.5959V28.873H9.62905V26.5959C9.62905 26.3088 9.57415 26.0946 9.46436 25.9534C9.35457 25.8122 9.19437 25.7416 8.98375 25.7416C8.83587 25.7416 8.69807 25.7839 8.57035 25.8686C8.44488 25.951 8.32948 26.064 8.22418 26.2076V28.873H7.62593Z" fill="#102142"/>
<path d="M15.7064 28.873H15.4409C15.3826 28.873 15.3356 28.8636 15.2997 28.8448C15.2639 28.8259 15.2403 28.7859 15.2291 28.7247L15.1619 28.3929C15.0723 28.4776 14.9849 28.5541 14.8998 28.6224C14.8146 28.6883 14.725 28.7447 14.6309 28.7918C14.5368 28.8365 14.4359 28.8707 14.3284 28.8942C14.2231 28.9177 14.1055 28.9295 13.9755 28.9295C13.8433 28.9295 13.7189 28.9107 13.6024 28.873C13.4882 28.833 13.3885 28.7742 13.3033 28.6965C13.2182 28.6188 13.1498 28.5211 13.0983 28.4035C13.049 28.2834 13.0244 28.1422 13.0244 27.9798C13.0244 27.8386 13.0613 27.7033 13.1353 27.5738C13.2092 27.442 13.328 27.3255 13.4915 27.2243C13.6573 27.1231 13.8735 27.0407 14.1402 26.9772C14.4068 26.9113 14.7328 26.8736 15.1182 26.8642V26.5853C15.1182 26.3076 15.0611 26.0981 14.9468 25.9569C14.8348 25.8133 14.6678 25.7416 14.446 25.7416C14.3004 25.7416 14.1772 25.7616 14.0763 25.8016C13.9777 25.8392 13.8915 25.8828 13.8175 25.9322C13.7458 25.9793 13.6831 26.0228 13.6293 26.0628C13.5778 26.1005 13.5263 26.1193 13.4747 26.1193C13.4344 26.1193 13.3985 26.1087 13.3672 26.0875C13.338 26.064 13.3145 26.0358 13.2966 26.0028L13.189 25.8016C13.3772 25.6109 13.58 25.4685 13.7974 25.3744C14.0147 25.2802 14.2556 25.2332 14.52 25.2332C14.7104 25.2332 14.8796 25.2661 15.0275 25.332C15.1754 25.3979 15.2997 25.4897 15.4005 25.6074C15.5014 25.7251 15.5775 25.8675 15.6291 26.0346C15.6806 26.2017 15.7064 26.3853 15.7064 26.5853V28.873ZM14.1536 28.4882C14.2589 28.4882 14.3553 28.4776 14.4427 28.4564C14.5301 28.4329 14.6118 28.4011 14.688 28.3611C14.7664 28.3187 14.8404 28.2681 14.9098 28.2093C14.9815 28.1505 15.051 28.0834 15.1182 28.0081V27.2632C14.8426 27.2726 14.6085 27.2961 14.4158 27.3338C14.2231 27.3691 14.0662 27.4161 13.9452 27.475C13.8243 27.5338 13.7357 27.6032 13.6797 27.6833C13.626 27.7633 13.5991 27.8527 13.5991 27.9516C13.5991 28.0457 13.6136 28.1269 13.6428 28.1952C13.6719 28.2634 13.7111 28.3199 13.7604 28.3646C13.8097 28.407 13.8679 28.4388 13.9352 28.46C14.0024 28.4788 14.0752 28.4882 14.1536 28.4882Z" fill="#102142"/>
<path d="M16.672 28.873V25.2967H17.0283C17.1134 25.2967 17.1672 25.3403 17.1896 25.4273L17.2367 25.8157C17.3846 25.6439 17.5492 25.505 17.7307 25.3991C17.9145 25.2932 18.1262 25.2402 18.366 25.2402C18.5519 25.2402 18.7155 25.2732 18.8566 25.3391C19 25.4026 19.1188 25.4944 19.2129 25.6145C19.3093 25.7321 19.3821 25.8745 19.4314 26.0416C19.4807 26.2087 19.5053 26.3935 19.5053 26.5959V28.873H18.9071V26.5959C18.9071 26.3252 18.8477 26.1158 18.7289 25.9675C18.6124 25.8169 18.4332 25.7416 18.1912 25.7416C18.0142 25.7416 17.8484 25.7863 17.6938 25.8757C17.5414 25.9651 17.4002 26.0864 17.2703 26.2393V28.873H16.672Z" fill="#102142"/>
<path d="M21.4983 28.9295C21.2294 28.9295 21.0221 28.8507 20.8765 28.693C20.7331 28.5353 20.6614 28.3081 20.6614 28.0116V25.8228H20.2514C20.2155 25.8228 20.1853 25.8122 20.1606 25.791C20.136 25.7674 20.1236 25.7321 20.1236 25.6851V25.4344L20.6816 25.3603L20.8194 24.2553C20.8238 24.22 20.8384 24.1917 20.863 24.1705C20.8877 24.147 20.9191 24.1352 20.9571 24.1352H21.2596V25.3673H22.2343V25.8228H21.2596V27.9692C21.2596 28.1199 21.2944 28.2317 21.3638 28.3046C21.4333 28.3776 21.5229 28.4141 21.6327 28.4141C21.6954 28.4141 21.7492 28.4058 21.794 28.3893C21.8411 28.3705 21.8814 28.3505 21.915 28.3293C21.9486 28.3081 21.9766 28.2893 21.999 28.2728C22.0237 28.254 22.045 28.2446 22.0629 28.2446C22.0943 28.2446 22.1223 28.2646 22.1469 28.3046L22.3217 28.6047C22.2186 28.7059 22.0943 28.7859 21.9486 28.8448C21.803 28.9013 21.6529 28.9295 21.4983 28.9295Z" fill="#102142"/>
<path d="M23.6988 25.2967V28.873H23.1006V25.2967H23.6988ZM23.8332 24.1741C23.8332 24.2353 23.8209 24.2929 23.7963 24.347C23.7739 24.3988 23.7425 24.4459 23.7022 24.4883C23.6641 24.5283 23.6193 24.56 23.5677 24.5836C23.5162 24.6071 23.4613 24.6189 23.403 24.6189C23.3448 24.6189 23.2899 24.6071 23.2384 24.5836C23.1891 24.56 23.1442 24.5283 23.1039 24.4883C23.0658 24.4459 23.0356 24.3988 23.0132 24.347C22.9908 24.2929 22.9796 24.2353 22.9796 24.1741C22.9796 24.1129 22.9908 24.0552 23.0132 24.0011C23.0356 23.9446 23.0658 23.8963 23.1039 23.8563C23.1442 23.814 23.1891 23.781 23.2384 23.7575C23.2899 23.7339 23.3448 23.7222 23.403 23.7222C23.4613 23.7222 23.5162 23.7339 23.5677 23.7575C23.6193 23.781 23.6641 23.814 23.7022 23.8563C23.7425 23.8963 23.7739 23.9446 23.7963 24.0011C23.8209 24.0552 23.8332 24.1129 23.8332 24.1741Z" fill="#102142"/>
<path d="M27.1349 25.9322C27.117 25.9581 27.0991 25.9781 27.0811 25.9922C27.0632 26.0063 27.0374 26.0134 27.0038 26.0134C26.9702 26.0134 26.9333 25.9993 26.8929 25.971C26.8548 25.9404 26.8055 25.9075 26.745 25.8722C26.6845 25.8369 26.6106 25.8051 26.5232 25.7769C26.4381 25.7463 26.3328 25.731 26.2073 25.731C26.0415 25.731 25.8947 25.7627 25.767 25.8263C25.6393 25.8875 25.5317 25.9769 25.4444 26.0946C25.3592 26.2123 25.2942 26.3547 25.2494 26.5218C25.2069 26.6889 25.1856 26.876 25.1856 27.0831C25.1856 27.2996 25.2091 27.4926 25.2561 27.6621C25.3032 27.8292 25.3693 27.9704 25.4544 28.0857C25.5396 28.1987 25.6427 28.2858 25.7636 28.347C25.8869 28.4058 26.0247 28.4352 26.177 28.4352C26.3227 28.4352 26.4426 28.4176 26.5367 28.3823C26.6308 28.3446 26.7092 28.3034 26.7719 28.2587C26.8347 28.214 26.8862 28.174 26.9265 28.1387C26.9669 28.101 27.0072 28.0822 27.0475 28.0822C27.0991 28.0822 27.1372 28.1022 27.1618 28.1422L27.3298 28.3717C27.182 28.5623 26.9971 28.7024 26.7753 28.7918C26.5535 28.8789 26.3193 28.9224 26.0729 28.9224C25.86 28.9224 25.6617 28.8812 25.478 28.7989C25.2965 28.7165 25.1385 28.5976 25.0041 28.4423C24.8696 28.2846 24.7632 28.0916 24.6848 27.8633C24.6086 27.635 24.5705 27.3749 24.5705 27.0831C24.5705 26.8171 24.6052 26.5712 24.6747 26.3453C24.7464 26.1193 24.8495 25.9251 24.9839 25.7627C25.1206 25.598 25.2886 25.4697 25.4881 25.3779C25.6875 25.2861 25.916 25.2402 26.1737 25.2402C26.4112 25.2402 26.6218 25.2814 26.8055 25.3638C26.9893 25.4438 27.1517 25.558 27.2929 25.7062L27.1349 25.9322Z" fill="#102142"/>
<path d="M33.4253 28.873H32.9211C32.8629 28.873 32.8158 28.8577 32.78 28.8271C32.7441 28.7965 32.7172 28.7577 32.6993 28.7106L32.2489 27.4891H30.0879L29.6375 28.7106C29.6218 28.753 29.5949 28.7906 29.5568 28.8236C29.5187 28.8565 29.4717 28.873 29.4157 28.873H28.9115L30.8373 23.814H31.4994L33.4253 28.873ZM30.2693 26.9948H32.0674L31.3112 24.9366C31.2619 24.8095 31.2138 24.6507 31.1667 24.46C31.1421 24.5565 31.1174 24.646 31.0928 24.7283C31.0704 24.8084 31.048 24.879 31.0256 24.9402L30.2693 26.9948Z" fill="#102142"/>
<path d="M34.5143 25.2967V27.5774C34.5143 27.848 34.5737 28.0575 34.6924 28.2058C34.8112 28.354 34.9904 28.4282 35.2302 28.4282C35.4049 28.4282 35.5696 28.3846 35.7242 28.2976C35.8788 28.2105 36.0211 28.0893 36.1511 27.9339V25.2967H36.7493V28.873H36.393C36.3079 28.873 36.2541 28.8295 36.2317 28.7424L36.1847 28.3576C36.0368 28.5294 35.871 28.6682 35.6872 28.7742C35.5035 28.8777 35.2929 28.9295 35.0554 28.9295C34.8694 28.9295 34.7047 28.8977 34.5613 28.8342C34.4202 28.7683 34.3014 28.6765 34.2051 28.5588C34.1087 28.4411 34.0359 28.2987 33.9866 28.1316C33.9396 27.9645 33.916 27.7798 33.916 27.5774V25.2967H34.5143Z" fill="#102142"/>
<path d="M38.8229 28.9295C38.554 28.9295 38.3468 28.8507 38.2011 28.693C38.0577 28.5353 37.986 28.3081 37.986 28.0116V25.8228H37.576C37.5402 25.8228 37.5099 25.8122 37.4853 25.791C37.4606 25.7674 37.4483 25.7321 37.4483 25.6851V25.4344L38.0062 25.3603L38.144 24.2553C38.1485 24.22 38.1631 24.1917 38.1877 24.1705C38.2123 24.147 38.2437 24.1352 38.2818 24.1352H38.5843V25.3673H39.559V25.8228H38.5843V27.9692C38.5843 28.1199 38.619 28.2317 38.6885 28.3046C38.7579 28.3776 38.8476 28.4141 38.9574 28.4141C39.0201 28.4141 39.0739 28.4058 39.1187 28.3893C39.1657 28.3705 39.2061 28.3505 39.2397 28.3293C39.2733 28.3081 39.3013 28.2893 39.3237 28.2728C39.3483 28.254 39.3696 28.2446 39.3876 28.2446C39.4189 28.2446 39.4469 28.2646 39.4716 28.3046L39.6463 28.6047C39.5433 28.7059 39.4189 28.7859 39.2733 28.8448C39.1276 28.9013 38.9775 28.9295 38.8229 28.9295Z" fill="#102142"/>
<path d="M41.736 25.2402C41.9847 25.2402 42.2087 25.2838 42.4082 25.3709C42.6098 25.4579 42.7801 25.5815 42.919 25.7416C43.0602 25.9016 43.1677 26.0958 43.2417 26.3241C43.3179 26.55 43.3559 26.803 43.3559 27.0831C43.3559 27.3655 43.3179 27.6197 43.2417 27.8457C43.1677 28.0716 43.0602 28.2646 42.919 28.4247C42.7801 28.5847 42.6098 28.7083 42.4082 28.7953C42.2087 28.8801 41.9847 28.9224 41.736 28.9224C41.4873 28.9224 41.2621 28.8801 41.0604 28.7953C40.861 28.7083 40.6907 28.5847 40.5496 28.4247C40.4084 28.2646 40.2997 28.0716 40.2236 27.8457C40.1474 27.6197 40.1093 27.3655 40.1093 27.0831C40.1093 26.803 40.1474 26.55 40.2236 26.3241C40.2997 26.0958 40.4084 25.9016 40.5496 25.7416C40.6907 25.5815 40.861 25.4579 41.0604 25.3709C41.2621 25.2838 41.4873 25.2402 41.736 25.2402ZM41.736 28.4317C42.0721 28.4317 42.323 28.314 42.4888 28.0787C42.6546 27.841 42.7375 27.5103 42.7375 27.0866C42.7375 26.6606 42.6546 26.3288 42.4888 26.0911C42.323 25.8533 42.0721 25.7345 41.736 25.7345C41.5657 25.7345 41.4178 25.7651 41.2923 25.8263C41.1669 25.8875 41.0616 25.9757 40.9764 26.0911C40.8935 26.2064 40.8308 26.3488 40.7882 26.5182C40.7479 26.6853 40.7277 26.8748 40.7277 27.0866C40.7277 27.2985 40.7479 27.4879 40.7882 27.655C40.8308 27.8221 40.8935 27.9633 40.9764 28.0787C41.0616 28.1916 41.1669 28.2787 41.2923 28.3399C41.4178 28.4011 41.5657 28.4317 41.736 28.4317Z" fill="#102142"/>
<path d="M44.1524 28.873V25.2967H44.5087C44.5938 25.2967 44.6476 25.3403 44.67 25.4273L44.7137 25.7945C44.8392 25.6321 44.9792 25.4991 45.1338 25.3956C45.2906 25.292 45.4721 25.2402 45.6783 25.2402C45.9091 25.2402 46.095 25.3073 46.2362 25.4415C46.3796 25.5756 46.4827 25.7569 46.5454 25.9852C46.5924 25.8557 46.6541 25.7439 46.7302 25.6498C46.8087 25.5556 46.8961 25.478 46.9924 25.4168C47.0887 25.3556 47.1907 25.3108 47.2982 25.2826C47.408 25.2544 47.5189 25.2402 47.631 25.2402C47.8102 25.2402 47.9693 25.2708 48.1082 25.332C48.2494 25.3909 48.3681 25.478 48.4645 25.5933C48.5631 25.7086 48.6381 25.851 48.6897 26.0205C48.7412 26.1876 48.767 26.3794 48.767 26.5959V28.873H48.1687V26.5959C48.1687 26.3158 48.1105 26.104 47.994 25.9604C47.8774 25.8145 47.7083 25.7416 47.4865 25.7416C47.3879 25.7416 47.2938 25.7604 47.2041 25.798C47.1168 25.8333 47.0395 25.8863 46.9722 25.9569C46.905 26.0275 46.8512 26.117 46.8109 26.2252C46.7728 26.3311 46.7538 26.4547 46.7538 26.5959V28.873H46.1555V26.5959C46.1555 26.3088 46.1006 26.0946 45.9908 25.9534C45.881 25.8122 45.7208 25.7416 45.5102 25.7416C45.3623 25.7416 45.2245 25.7839 45.0968 25.8686C44.9714 25.951 44.856 26.064 44.7507 26.2076V28.873H44.1524Z" fill="#102142"/>
<path d="M52.2329 28.873H51.9673C51.9091 28.873 51.862 28.8636 51.8262 28.8448C51.7903 28.8259 51.7668 28.7859 51.7556 28.7247L51.6884 28.3929C51.5988 28.4776 51.5114 28.5541 51.4262 28.6224C51.3411 28.6883 51.2515 28.7447 51.1574 28.7918C51.0632 28.8365 50.9624 28.8707 50.8549 28.8942C50.7496 28.9177 50.6319 28.9295 50.502 28.9295C50.3698 28.9295 50.2454 28.9107 50.1289 28.873C50.0146 28.833 49.9149 28.7742 49.8298 28.6965C49.7446 28.6188 49.6763 28.5211 49.6248 28.4035C49.5755 28.2834 49.5508 28.1422 49.5508 27.9798C49.5508 27.8386 49.5878 27.7033 49.6617 27.5738C49.7357 27.442 49.8544 27.3255 50.018 27.2243C50.1838 27.1231 50.4 27.0407 50.6667 26.9772C50.9333 26.9113 51.2593 26.8736 51.6447 26.8642V26.5853C51.6447 26.3076 51.5876 26.0981 51.4733 25.9569C51.3612 25.8133 51.1943 25.7416 50.9725 25.7416C50.8269 25.7416 50.7036 25.7616 50.6028 25.8016C50.5042 25.8392 50.4179 25.8828 50.344 25.9322C50.2723 25.9793 50.2096 26.0228 50.1558 26.0628C50.1043 26.1005 50.0527 26.1193 50.0012 26.1193C49.9609 26.1193 49.925 26.1087 49.8936 26.0875C49.8645 26.064 49.841 26.0358 49.8231 26.0028L49.7155 25.8016C49.9037 25.6109 50.1065 25.4685 50.3238 25.3744C50.5412 25.2802 50.782 25.2332 51.0464 25.2332C51.2369 25.2332 51.4061 25.2661 51.5539 25.332C51.7018 25.3979 51.8262 25.4897 51.927 25.6074C52.0278 25.7251 52.104 25.8675 52.1556 26.0346C52.2071 26.2017 52.2329 26.3853 52.2329 26.5853V28.873ZM50.6801 28.4882C50.7854 28.4882 50.8818 28.4776 50.9691 28.4564C51.0565 28.4329 51.1383 28.4011 51.2145 28.3611C51.2929 28.3187 51.3669 28.2681 51.4363 28.2093C51.508 28.1505 51.5775 28.0834 51.6447 28.0081V27.2632C51.3691 27.2726 51.135 27.2961 50.9423 27.3338C50.7496 27.3691 50.5927 27.4161 50.4717 27.475C50.3507 27.5338 50.2622 27.6032 50.2062 27.6833C50.1524 27.7633 50.1255 27.8527 50.1255 27.9516C50.1255 28.0457 50.1401 28.1269 50.1692 28.1952C50.1984 28.2634 50.2376 28.3199 50.2869 28.3646C50.3362 28.407 50.3944 28.4388 50.4616 28.46C50.5289 28.4788 50.6017 28.4882 50.6801 28.4882Z" fill="#102142"/>
<path d="M54.2303 28.9295C53.9614 28.9295 53.7542 28.8507 53.6086 28.693C53.4652 28.5353 53.3934 28.3081 53.3934 28.0116V25.8228H52.9834C52.9476 25.8228 52.9173 25.8122 52.8927 25.791C52.868 25.7674 52.8557 25.7321 52.8557 25.6851V25.4344L53.4136 25.3603L53.5514 24.2553C53.5559 24.22 53.5705 24.1917 53.5951 24.1705C53.6198 24.147 53.6511 24.1352 53.6892 24.1352H53.9917V25.3673H54.9664V25.8228H53.9917V27.9692C53.9917 28.1199 54.0264 28.2317 54.0959 28.3046C54.1653 28.3776 54.255 28.4141 54.3648 28.4141C54.4275 28.4141 54.4813 28.4058 54.5261 28.3893C54.5731 28.3705 54.6135 28.3505 54.6471 28.3293C54.6807 28.3081 54.7087 28.2893 54.7311 28.2728C54.7557 28.254 54.777 28.2446 54.795 28.2446C54.8263 28.2446 54.8543 28.2646 54.879 28.3046L55.0538 28.6047C54.9507 28.7059 54.8263 28.7859 54.6807 28.8448C54.535 28.9013 54.3849 28.9295 54.2303 28.9295Z" fill="#102142"/>
<path d="M56.4309 25.2967V28.873H55.8326V25.2967H56.4309ZM56.5653 24.1741C56.5653 24.2353 56.553 24.2929 56.5283 24.347C56.5059 24.3988 56.4746 24.4459 56.4342 24.4883C56.3961 24.5283 56.3513 24.56 56.2998 24.5836C56.2483 24.6071 56.1934 24.6189 56.1351 24.6189C56.0768 24.6189 56.0219 24.6071 55.9704 24.5836C55.9211 24.56 55.8763 24.5283 55.836 24.4883C55.7979 24.4459 55.7676 24.3988 55.7452 24.347C55.7228 24.2929 55.7116 24.2353 55.7116 24.1741C55.7116 24.1129 55.7228 24.0552 55.7452 24.0011C55.7676 23.9446 55.7979 23.8963 55.836 23.8563C55.8763 23.814 55.9211 23.781 55.9704 23.7575C56.0219 23.7339 56.0768 23.7222 56.1351 23.7222C56.1934 23.7222 56.2483 23.7339 56.2998 23.7575C56.3513 23.781 56.3961 23.814 56.4342 23.8563C56.4746 23.8963 56.5059 23.9446 56.5283 24.0011C56.553 24.0552 56.5653 24.1129 56.5653 24.1741Z" fill="#102142"/>
<path d="M58.9226 25.2402C59.1713 25.2402 59.3953 25.2838 59.5947 25.3709C59.7964 25.4579 59.9667 25.5815 60.1056 25.7416C60.2468 25.9016 60.3543 26.0958 60.4282 26.3241C60.5044 26.55 60.5425 26.803 60.5425 27.0831C60.5425 27.3655 60.5044 27.6197 60.4282 27.8457C60.3543 28.0716 60.2468 28.2646 60.1056 28.4247C59.9667 28.5847 59.7964 28.7083 59.5947 28.7953C59.3953 28.8801 59.1713 28.9224 58.9226 28.9224C58.6738 28.9224 58.4487 28.8801 58.247 28.7953C58.0476 28.7083 57.8773 28.5847 57.7361 28.4247C57.595 28.2646 57.4863 28.0716 57.4101 27.8457C57.334 27.6197 57.2959 27.3655 57.2959 27.0831C57.2959 26.803 57.334 26.55 57.4101 26.3241C57.4863 26.0958 57.595 25.9016 57.7361 25.7416C57.8773 25.5815 58.0476 25.4579 58.247 25.3709C58.4487 25.2838 58.6738 25.2402 58.9226 25.2402ZM58.9226 28.4317C59.2586 28.4317 59.5096 28.314 59.6754 28.0787C59.8412 27.841 59.9241 27.5103 59.9241 27.0866C59.9241 26.6606 59.8412 26.3288 59.6754 26.0911C59.5096 25.8533 59.2586 25.7345 58.9226 25.7345C58.7523 25.7345 58.6044 25.7651 58.4789 25.8263C58.3534 25.8875 58.2481 25.9757 58.163 26.0911C58.0801 26.2064 58.0173 26.3488 57.9748 26.5182C57.9344 26.6853 57.9143 26.8748 57.9143 27.0866C57.9143 27.2985 57.9344 27.4879 57.9748 27.655C58.0173 27.8221 58.0801 27.9633 58.163 28.0787C58.2481 28.1916 58.3534 28.2787 58.4789 28.3399C58.6044 28.4011 58.7523 28.4317 58.9226 28.4317Z" fill="#102142"/>
<path d="M61.339 28.873V25.2967H61.6952C61.7804 25.2967 61.8342 25.3403 61.8566 25.4273L61.9036 25.8157C62.0515 25.6439 62.2162 25.505 62.3977 25.3991C62.5814 25.2932 62.7931 25.2402 63.0329 25.2402C63.2189 25.2402 63.3824 25.2732 63.5236 25.3391C63.667 25.4026 63.7857 25.4944 63.8798 25.6145C63.9762 25.7321 64.049 25.8745 64.0983 26.0416C64.1476 26.2087 64.1722 26.3935 64.1722 26.5959V28.873H63.574V26.5959C63.574 26.3252 63.5146 26.1158 63.3959 25.9675C63.2794 25.8169 63.1001 25.7416 62.8581 25.7416C62.6811 25.7416 62.5153 25.7863 62.3607 25.8757C62.2083 25.9651 62.0672 26.0864 61.9372 26.2393V28.873H61.339Z" fill="#102142"/>
<defs>
<linearGradient id="paint0_linear_912_5957" x1="0.177734" y1="10.4084" x2="64.2277" y2="10.4084" gradientUnits="userSpaceOnUse">
<stop stop-color="#4786FF"/>
<stop offset="1" stop-color="#3164C8"/>
</linearGradient>
<linearGradient id="paint1_linear_912_5957" x1="0.177734" y1="10.4084" x2="64.2277" y2="10.4084" gradientUnits="userSpaceOnUse">
<stop stop-color="#4786FF"/>
<stop offset="1" stop-color="#3164C8"/>
</linearGradient>
<linearGradient id="paint2_linear_912_5957" x1="0.177734" y1="10.4084" x2="64.2277" y2="10.4084" gradientUnits="userSpaceOnUse">
<stop stop-color="#4786FF"/>
<stop offset="1" stop-color="#3164C8"/>
</linearGradient>
<linearGradient id="paint3_linear_912_5957" x1="0.177734" y1="10.4084" x2="64.2277" y2="10.4084" gradientUnits="userSpaceOnUse">
<stop stop-color="#4786FF"/>
<stop offset="1" stop-color="#3164C8"/>
</linearGradient>
<linearGradient id="paint4_linear_912_5957" x1="0.177734" y1="10.4084" x2="64.2277" y2="10.4084" gradientUnits="userSpaceOnUse">
<stop stop-color="#4786FF"/>
<stop offset="1" stop-color="#3164C8"/>
</linearGradient>
<linearGradient id="paint5_linear_912_5957" x1="0.177734" y1="10.4084" x2="64.2277" y2="10.4084" gradientUnits="userSpaceOnUse">
<stop stop-color="#4786FF"/>
<stop offset="1" stop-color="#3164C8"/>
</linearGradient>
</defs>
</svg>
