<svg width="60" height="60" viewBox="0 0 60 60" fill="none" xmlns="http://www.w3.org/2000/svg">
<g id="error">
<g id="Vector">
<path d="M30 56.875C15.175 56.875 3.125 44.825 3.125 30C3.125 15.175 15.175 3.125 30 3.125C44.825 3.125 56.875 15.175 56.875 30C56.875 44.825 44.825 56.875 30 56.875ZM30 6.875C17.25 6.875 6.875 17.25 6.875 30C6.875 42.75 17.25 53.125 30 53.125C42.75 53.125 53.125 42.75 53.125 30C53.125 17.25 42.75 6.875 30 6.875Z" fill="#FB0B24"/>
<path d="M30 34.375C28.975 34.375 28.125 33.525 28.125 32.5V20C28.125 18.975 28.975 18.125 30 18.125C31.025 18.125 31.875 18.975 31.875 20V32.5C31.875 33.525 31.025 34.375 30 34.375Z" fill="#FB0B24"/>
<path d="M30 42.5C29.675 42.5 29.35 42.425 29.05 42.3C28.75 42.175 28.475 42 28.225 41.775C28 41.525 27.825 41.275 27.7 40.95C27.575 40.65 27.5 40.325 27.5 40C27.5 39.675 27.575 39.35 27.7 39.05C27.825 38.75 28 38.475 28.225 38.225C28.475 38 28.75 37.825 29.05 37.7C29.65 37.45 30.35 37.45 30.95 37.7C31.25 37.825 31.525 38 31.775 38.225C32 38.475 32.175 38.75 32.3 39.05C32.425 39.35 32.5 39.675 32.5 40C32.5 40.325 32.425 40.65 32.3 40.95C32.175 41.275 32 41.525 31.775 41.775C31.525 42 31.25 42.175 30.95 42.3C30.65 42.425 30.325 42.5 30 42.5Z" fill="#FB0B24"/>
</g>
</g>
</svg>
