<svg width="24" height="24" viewBox="0 0 24 24" fill="none" xmlns="http://www.w3.org/2000/svg">
<g id="notification new">
<g id="Vector">
<path d="M12.0201 20.5302C9.69011 20.5302 7.36011 20.1602 5.15011 19.4202C4.31011 19.1302 3.67011 18.5402 3.39011 17.7702C3.10011 17.0002 3.20011 16.1502 3.66011 15.3902L4.81011 13.4802C5.05011 13.0802 5.27011 12.2802 5.27011 11.8102V8.92018C5.27011 5.20018 8.30011 2.17018 12.0201 2.17018C15.7401 2.17018 18.7701 5.20018 18.7701 8.92018V11.8102C18.7701 12.2702 18.9901 13.0802 19.2301 13.4902L20.3701 15.3902C20.8001 16.1102 20.8801 16.9802 20.5901 17.7702C20.3001 18.5602 19.6701 19.1602 18.8801 19.4202C16.6801 20.1602 14.3501 20.5302 12.0201 20.5302ZM12.0201 3.67018C9.13011 3.67018 6.77011 6.02018 6.77011 8.92018V11.8102C6.77011 12.5402 6.47011 13.6202 6.10011 14.2502L4.95011 16.1602C4.73011 16.5302 4.67011 16.9202 4.80011 17.2502C4.92011 17.5902 5.22011 17.8502 5.63011 17.9902C9.81011 19.3902 14.2401 19.3902 18.4201 17.9902C18.7801 17.8702 19.0601 17.6002 19.1901 17.2402C19.3201 16.8802 19.2901 16.4902 19.0901 16.1602L17.9401 14.2502C17.5601 13.6002 17.2701 12.5302 17.2701 11.8002V8.92018C17.2701 6.02018 14.9201 3.67018 12.0201 3.67018Z" fill="#102142"/>
<path d="M13.8797 3.94018C13.8097 3.94018 13.7397 3.93018 13.6697 3.91018C13.3797 3.83018 13.0997 3.77018 12.8297 3.73018C11.9797 3.62018 11.1597 3.68018 10.3897 3.91018C10.1097 4.00018 9.80974 3.91018 9.61974 3.70018C9.42974 3.49018 9.36974 3.19018 9.47974 2.92018C9.88974 1.87018 10.8897 1.18018 12.0297 1.18018C13.1697 1.18018 14.1697 1.86018 14.5797 2.92018C14.6797 3.19018 14.6297 3.49018 14.4397 3.70018C14.2897 3.86018 14.0797 3.94018 13.8797 3.94018Z" fill="#102142"/>
<path d="M12.0196 22.8102C11.0296 22.8102 10.0696 22.4102 9.36964 21.7102C8.66964 21.0102 8.26964 20.0502 8.26964 19.0602H9.76964C9.76964 19.6502 10.0096 20.2302 10.4296 20.6502C10.8496 21.0702 11.4296 21.3102 12.0196 21.3102C13.2596 21.3102 14.2696 20.3002 14.2696 19.0602H15.7696C15.7696 21.1302 14.0896 22.8102 12.0196 22.8102Z" fill="#102142"/>
</g>
<circle id="Ellipse 1" cx="17.5" cy="4.5" r="3" fill="#FB0B24" stroke="white"/>
</g>
</svg>
