<svg width="24" height="24" viewBox="0 0 24 24" fill="none" xmlns="http://www.w3.org/2000/svg">
<path d="M20.9997 6.72998C20.9797 6.72998 20.9497 6.72998 20.9197 6.72998C15.6297 6.19998 10.3497 5.99998 5.11967 6.52998L3.07967 6.72998C2.65967 6.76998 2.28967 6.46998 2.24967 6.04998C2.20967 5.62998 2.50967 5.26998 2.91967 5.22998L4.95967 5.02998C10.2797 4.48998 15.6697 4.69998 21.0697 5.22998C21.4797 5.26998 21.7797 5.63998 21.7397 6.04998C21.7097 6.43998 21.3797 6.72998 20.9997 6.72998Z" fill="#F19702"/>
<path d="M8.5 5.72C8.46 5.72 8.42 5.72 8.37 5.71C7.97 5.64 7.69 5.25 7.76 4.85L7.98 3.54C8.14 2.58 8.36 1.25 10.69 1.25H13.31C15.65 1.25 15.87 2.63 16.02 3.55L16.24 4.85C16.31 5.26 16.03 5.65 15.63 5.71C15.22 5.78 14.83 5.5 14.77 5.1L14.55 3.8C14.41 2.93 14.38 2.76 13.32 2.76H10.7C9.64 2.76 9.62 2.9 9.47 3.79L9.24 5.09C9.18 5.46 8.86 5.72 8.5 5.72Z" fill="#F19702"/>
<path d="M15.2104 22.75H8.79039C5.30039 22.75 5.16039 20.82 5.05039 19.26L4.40039 9.18995C4.37039 8.77995 4.69039 8.41995 5.10039 8.38995C5.52039 8.36995 5.87039 8.67995 5.90039 9.08995L6.55039 19.16C6.66039 20.68 6.70039 21.25 8.79039 21.25H15.2104C17.3104 21.25 17.3504 20.68 17.4504 19.16L18.1004 9.08995C18.1304 8.67995 18.4904 8.36995 18.9004 8.38995C19.3104 8.41995 19.6304 8.76995 19.6004 9.18995L18.9504 19.26C18.8404 20.82 18.7004 22.75 15.2104 22.75Z" fill="#F19702"/>
<path d="M13.66 17.25H10.33C9.92 17.25 9.58 16.91 9.58 16.5C9.58 16.09 9.92 15.75 10.33 15.75H13.66C14.07 15.75 14.41 16.09 14.41 16.5C14.41 16.91 14.07 17.25 13.66 17.25Z" fill="#F19702"/>
<path d="M14.5 13.25H9.5C9.09 13.25 8.75 12.91 8.75 12.5C8.75 12.09 9.09 11.75 9.5 11.75H14.5C14.91 11.75 15.25 12.09 15.25 12.5C15.25 12.91 14.91 13.25 14.5 13.25Z" fill="#F19702"/>
</svg>
